<svg width="48" height="48" viewBox="0 0 48 48" fill="none" xmlns="http://www.w3.org/2000/svg">
<path d="M3 15.075C3 10.8038 3 8.66823 3.8444 7.04269C4.55597 5.67287 5.67287 4.55597 7.04269 3.8444C8.66823 3 10.8038 3 15.075 3H32.925C37.1962 3 39.3318 3 40.9573 3.8444C42.3271 4.55597 43.444 5.67287 44.1556 7.04269C45 8.66823 45 10.8038 45 15.075V32.925C45 37.1962 45 39.3318 44.1556 40.9573C43.444 42.3271 42.3271 43.444 40.9573 44.1556C39.3318 45 37.1962 45 32.925 45H15.075C10.8038 45 8.66823 45 7.04269 44.1556C5.67287 43.444 4.55597 42.3271 3.8444 40.9573C3 39.3318 3 37.1962 3 32.925V15.075Z" fill="url(#paint0_linear_6426_9738)"/>
<path d="M21.9313 36.2897L11.71 26.0684C12.5831 31.293 16.7067 35.4166 21.9313 36.2897Z" fill="#F2F3F8"/>
<path d="M11.5576 23.3054L24.694 36.4418C25.4732 36.3989 26.2334 36.2846 26.9681 36.1051L11.8943 21.0312C11.7147 21.766 11.6005 22.5262 11.5576 23.3054Z" fill="#F2F3F8"/>
<path d="M12.5508 19.0757L28.9256 35.4505C29.5212 35.194 30.0928 34.8925 30.6361 34.5502L13.4512 17.3652C13.1088 17.9085 12.8073 18.4801 12.5508 19.0757Z" fill="#F2F3F8"/>
<path d="M14.5576 15.8657C16.8428 13.2162 20.2244 11.5391 23.9979 11.5391C30.8801 11.5391 36.4594 17.1183 36.4594 24.0006C36.4594 27.774 34.7823 31.1557 32.1327 33.4408L14.5576 15.8657Z" fill="#F2F3F8"/>
<defs>
<linearGradient id="paint0_linear_6426_9738" x1="3" y1="45" x2="45" y2="3" gradientUnits="userSpaceOnUse">
<stop stop-color="#29359B"/>
<stop offset="1" stop-color="#6068CA"/>
</linearGradient>
</defs>
</svg>
