
<svg width="34" height="42" viewBox="0 0 34 42" fill="none" xmlns="http://www.w3.org/2000/svg">
<path d="M33.4763 16.6525C33.4763 7.45557 26.0985 1.67937e-05 16.9976 1.67937e-05C8.88622 -0.0115428 1.97371 5.94574 0.704416 14.0417C-0.564881 22.1376 4.18684 29.9624 11.9045 32.4852V40.8289C11.9045 41.4757 12.4233 42 13.0633 42H20.8855C21.5255 42 22.0443 41.4757 22.0443 40.8289V32.491C28.8511 30.2761 33.4685 23.8789 33.4763 16.6525ZM16.9976 22.2794C13.9207 22.2794 11.4265 19.7588 11.4265 16.6495C11.4265 13.5402 13.9207 11.0197 16.9976 11.0197C20.0744 11.0197 22.5687 13.5402 22.5687 16.6495C22.5687 19.7588 20.0744 22.2794 16.9976 22.2794Z" fill="#2684FF"/>
<path fill-rule="evenodd" clip-rule="evenodd" d="M16.9976 1.54446e-05V11.0255C20.0744 11.0255 22.5687 13.5461 22.5687 16.6554C22.5687 19.7647 20.0744 22.2853 16.9976 22.2853C18.3483 22.2853 19.6438 22.8275 20.5989 23.7927C21.5541 24.7579 22.0906 26.067 22.0906 27.4321V32.4969C29.8112 29.9737 34.565 22.1464 33.2957 14.0475C32.0264 5.94869 25.1118 -0.011072 16.9976 1.54446e-05Z" fill="url(#paint0_linear_6426_5405)"/>
<defs>
<linearGradient id="paint0_linear_6426_5405" x1="25.2369" y1="29.4814" x2="25.2369" y2="11.7926" gradientUnits="userSpaceOnUse">
<stop offset="0.18" stop-color="#0052CC"/>
<stop offset="1" stop-color="#2684FF"/>
</linearGradient>
</defs>
</svg>